<svg width="200" height="200" viewBox="0 0 200 200" fill="none" xmlns="http://www.w3.org/2000/svg">
<rect width="200" height="200" rx="20" fill="#006598"/>
<path d="M67.8 140L100 125.4L132.2 140L135.2 137L100 52L64.8 137L67.8 140ZM100 180C88.9333 180 78.5333 177.9 68.8 173.7C59.0667 169.5 50.6 163.8 43.4 156.6C36.2 149.4 30.5 140.933 26.3 131.2C22.1 121.467 20 111.067 20 100C20 88.9333 22.1 78.5333 26.3 68.8C30.5 59.0667 36.2 50.6 43.4 43.4C50.6 36.2 59.0667 30.5 68.8 26.3C78.5333 22.1 88.9333 20 100 20C111.067 20 121.467 22.1 131.2 26.3C140.933 30.5 149.4 36.2 156.6 43.4C163.8 50.6 169.5 59.0667 173.7 68.8C177.9 78.5333 180 88.9333 180 100C180 111.067 177.9 121.467 173.7 131.2C169.5 140.933 163.8 149.4 156.6 156.6C149.4 163.8 140.933 169.5 131.2 173.7C121.467 177.9 111.067 180 100 180ZM100 164C117.867 164 133 157.8 145.4 145.4C157.8 133 164 117.867 164 100C164 82.1333 157.8 67 145.4 54.6C133 42.2 117.867 36 100 36C82.1333 36 67 42.2 54.6 54.6C42.2 67 36 82.1333 36 100C36 117.867 42.2 133 54.6 145.4C67 157.8 82.1333 164 100 164Z" fill="white"/>
</svg>
