<svg xmlns="http://www.w3.org/2000/svg" viewBox="0 0 100 100" width="512" height="512"><rect x="12" y="18" width="76" height="72" rx="10" fill="white" stroke="oklch(0.22 0.02 60)" stroke-width="4"></rect><rect x="12" y="18" width="76" height="20" rx="10" fill="oklch(0.70 0.17 55)"></rect><rect x="12" y="28" width="76" height="10" fill="oklch(0.70 0.17 55)"></rect><rect x="28" y="10" width="5" height="16" rx="2.5" fill="oklch(0.22 0.02 60)"></rect><rect x="67" y="10" width="5" height="16" rx="2.5" fill="oklch(0.22 0.02 60)"></rect><circle cx="24" cy="50" r="2.2" fill="oklch(0.45 0.03 60)"></circle><circle cx="41.5" cy="50" r="2.2" fill="oklch(0.45 0.03 60)"></circle><circle cx="59" cy="50" r="2.2" fill="oklch(0.45 0.03 60)"></circle><circle cx="76.5" cy="50" r="2.2" fill="oklch(0.45 0.03 60)"></circle><circle cx="24" cy="59" r="2.2" fill="oklch(0.45 0.03 60)"></circle><circle cx="41.5" cy="59" r="2.2" fill="oklch(0.45 0.03 60)"></circle><circle cx="59" cy="59" r="5.5" fill="none" stroke="oklch(0.62 0.17 35)" stroke-width="2.5"></circle><circle cx="76.5" cy="59" r="2.2" fill="oklch(0.45 0.03 60)"></circle><circle cx="24" cy="68" r="2.2" fill="oklch(0.45 0.03 60)"></circle><circle cx="41.5" cy="68" r="2.2" fill="oklch(0.45 0.03 60)"></circle><circle cx="59" cy="68" r="2.2" fill="oklch(0.45 0.03 60)"></circle><circle cx="76.5" cy="68" r="2.2" fill="oklch(0.45 0.03 60)"></circle><circle cx="24" cy="77" r="2.2" fill="oklch(0.45 0.03 60)"></circle><circle cx="41.5" cy="77" r="2.2" fill="oklch(0.45 0.03 60)"></circle><circle cx="59" cy="77" r="2.2" fill="oklch(0.45 0.03 60)"></circle><circle cx="76.5" cy="77" r="2.2" fill="oklch(0.45 0.03 60)"></circle></svg>