<svg width="200" height="200" viewBox="0 0 200 200" fill="none" xmlns="http://www.w3.org/2000/svg">
<rect width="200" height="200" rx="20" fill="#006598"/>
<path d="M86.8004 88.36C86.1771 89.1533 85.4404 89.55 84.5904 89.55C84.0804 89.55 83.5421 89.4083 82.9754 89.125L80.4254 87.935C79.3488 87.425 78.8104 86.745 78.8104 85.895C78.8104 85.4417 79.0371 84.8467 79.4904 84.11C80.6804 82.3533 81.7288 80.285 82.6354 77.905C83.5421 75.4683 84.2504 72.8617 84.7604 70.085C85.2704 67.3083 85.5254 64.56 85.5254 61.84C85.5254 54.87 84.2504 49.2033 81.7004 44.84C79.1504 40.4767 75.5521 37.7283 70.9054 36.595C72.2654 44.1317 72.9454 50.875 72.9454 56.825C72.9454 66.2883 71.3021 73.7683 68.0154 79.265C64.7854 84.7617 59.9971 87.51 53.6504 87.51C49.7971 87.51 46.4254 86.575 43.5354 84.705C40.6454 82.835 38.4071 80.285 36.8204 77.055C35.2338 73.7683 34.4404 70 34.4404 65.75C34.4404 60.99 35.2621 56.5133 36.9054 52.32C38.5488 48.1267 40.8154 44.4433 43.7054 41.27C46.6521 38.04 50.0238 35.5183 53.8204 33.705C57.6738 31.8917 61.7821 30.985 66.1454 30.985C72.3788 30.985 77.7621 32.2317 82.2954 34.725C86.8288 37.1617 90.3138 40.7033 92.7504 45.35C95.1871 49.94 96.4054 55.4367 96.4054 61.84C96.4054 72.3233 93.2038 81.1633 86.8004 88.36ZM45.3204 65.75C45.3204 68.7533 45.7171 71.53 46.5104 74.08C47.3038 76.5733 48.3238 78.585 49.5704 80.115C50.8738 81.645 52.2338 82.41 53.6504 82.41C55.2371 82.41 56.6254 81.2483 57.8154 78.925C59.0621 76.545 60.0254 73.3433 60.7054 69.32C61.4421 65.2967 61.8104 60.7633 61.8104 55.72C61.8104 52.83 61.6688 49.855 61.3854 46.795C61.1588 43.735 60.7621 40.6183 60.1954 37.445C57.4188 38.805 54.8971 40.9017 52.6304 43.735C50.4204 46.5683 48.6354 49.9117 47.2754 53.765C45.9721 57.5617 45.3204 61.5567 45.3204 65.75ZM165.519 71.19C165.519 74.76 164.187 77.905 161.524 80.625C158.861 83.2883 155.177 85.3567 150.474 86.83C145.771 88.3033 140.359 89.04 134.239 89.04C129.592 89.04 125.484 88.6433 121.914 87.85C118.401 87.1133 115.652 86.0367 113.669 84.62C111.686 83.2033 110.694 81.5317 110.694 79.605C110.694 77.6217 111.657 75.8083 113.584 74.165C115.567 72.465 118.117 71.105 121.234 70.085C124.351 69.065 127.637 68.555 131.094 68.555C136.137 68.555 140.387 69.5467 143.844 71.53C147.301 73.5133 149.624 76.3183 150.814 79.945C153.364 77.7917 154.639 74.8733 154.639 71.19C154.639 68.3 153.959 65.75 152.599 63.54C151.296 61.33 149.454 59.6017 147.074 58.355C144.751 57.1083 142.059 56.485 138.999 56.485C135.542 56.485 132.029 57.1083 128.459 58.355C124.889 59.545 121.489 61.245 118.259 63.455L112.819 67.705C111.799 68.555 110.836 68.98 109.929 68.98C108.909 68.98 107.974 68.47 107.124 67.45L106.444 66.77C105.877 66.2033 105.594 65.58 105.594 64.9C105.594 64.1633 105.962 63.5117 106.699 62.945C108.116 61.755 109.702 60.65 111.459 59.63L143.504 34.3H112.394C110.524 34.3 109.589 33.4783 109.589 31.835C109.589 30.1917 110.524 29.37 112.394 29.37H156.084C157.671 29.37 158.464 29.8517 158.464 30.815C158.464 31.495 158.067 32.1467 157.274 32.77L132.794 51.98C134.947 51.6967 137.016 51.555 138.999 51.555C142.626 51.555 146.026 52.065 149.199 53.085C152.429 54.105 155.262 55.5217 157.699 57.335C160.136 59.0917 162.034 61.16 163.394 63.54C164.811 65.92 165.519 68.47 165.519 71.19ZM121.574 79.605C121.574 80.795 121.914 81.73 122.594 82.41C123.331 83.0333 124.606 83.4867 126.419 83.77C128.232 83.9967 130.839 84.11 134.239 84.11C136.619 84.11 138.801 83.9683 140.784 83.685C140.671 83.4017 140.586 83.0333 140.529 82.58C139.849 76.5167 136.704 73.485 131.094 73.485C128.147 73.485 125.824 74.0233 124.124 75.1C122.424 76.1767 121.574 77.6783 121.574 79.605Z" fill="white"/>
<path d="M57.4562 176.975C56.7762 178.052 55.8978 178.59 54.8212 178.59C54.5378 178.59 54.1695 178.533 53.7162 178.42L50.0612 177.315C48.7578 176.862 48.1062 176.153 48.1062 175.19C48.1062 174.793 48.3045 174.255 48.7012 173.575C50.9678 170.005 52.8945 166.803 54.4812 163.97C56.0678 161.137 57.3712 158.36 58.3912 155.64C59.4678 152.92 60.3178 150.002 60.9412 146.885C61.5645 143.768 62.0462 140.113 62.3862 135.92H26.7712C24.9012 135.92 23.9662 135.07 23.9662 133.37C23.9662 131.67 24.9012 130.82 26.7712 130.82H62.6412C62.6978 128.723 62.7545 126.485 62.8112 124.105C62.8678 121.725 62.8962 119.175 62.8962 116.455C62.8962 114.528 63.8312 113.565 65.7012 113.565H70.9712C72.8412 113.565 73.7762 114.84 73.7762 117.39C73.7762 119.94 73.7478 122.32 73.6912 124.53C73.6345 126.74 73.5778 128.837 73.5212 130.82H91.6262C93.4962 130.82 94.4312 131.67 94.4312 133.37C94.4312 135.07 93.4962 135.92 91.6262 135.92H73.1812C72.8412 140.227 72.3028 144.052 71.5662 147.395C70.8862 150.682 69.9228 153.798 68.6762 156.745C67.4862 159.692 65.9562 162.78 64.0862 166.01C62.2728 169.183 60.0628 172.838 57.4562 176.975ZM176.31 116.88C176.367 117.107 176.395 117.39 176.395 117.73C176.395 118.807 175.545 119.458 173.845 119.685L170.87 120.11C168.717 120.337 167.413 119.713 166.96 118.24L161.775 104.13C161.718 104.017 161.662 103.903 161.605 103.79C161.605 103.62 161.605 103.45 161.605 103.28C161.605 102.203 162.512 101.552 164.325 101.325L167.215 100.985C169.368 100.758 170.7 101.382 171.21 102.855L176.31 116.88ZM165.26 121.3C165.317 121.47 165.345 121.725 165.345 122.065C165.345 123.255 164.438 123.935 162.625 124.105L159.65 124.36C157.553 124.643 156.278 124.02 155.825 122.49L150.555 107.445C150.498 107.275 150.47 107.02 150.47 106.68C150.47 105.49 151.377 104.81 153.19 104.64L156.165 104.385C158.318 104.102 159.622 104.725 160.075 106.255L165.26 121.3ZM173.25 168.135C175.12 168.135 176.055 168.985 176.055 170.685C176.055 172.385 175.12 173.235 173.25 173.235H112.985C111.115 173.235 110.18 172.3 110.18 170.43V114.84C110.18 112.97 111.115 112.035 112.985 112.035H118.255C120.125 112.035 121.06 112.97 121.06 114.84V132.945L168.83 125.805C170.587 125.522 171.72 126.202 172.23 127.845C172.287 128.015 172.315 128.185 172.315 128.355C172.372 128.468 172.4 128.582 172.4 128.695C172.4 129.998 171.607 130.735 170.02 130.905L121.06 138.215V168.135H173.25Z" fill="white"/>
</svg>
