<svg width="342" height="200" viewBox="0 0 342 200" fill="none" xmlns="http://www.w3.org/2000/svg">
<g clip-path="url(#clip0_2432_15)">
<rect width="342" height="200" rx="20" fill="#006598"/>
<path d="M74.6266 138.36C74.0033 139.153 73.2666 139.55 72.4166 139.55C71.9066 139.55 71.3683 139.408 70.8016 139.125L68.2516 137.935C67.1749 137.425 66.6366 136.745 66.6366 135.895C66.6366 135.442 66.8633 134.847 67.3166 134.11C68.5066 132.353 69.5549 130.285 70.4616 127.905C71.3683 125.468 72.0766 122.862 72.5866 120.085C73.0966 117.308 73.3516 114.56 73.3516 111.84C73.3516 104.87 72.0766 99.2033 69.5266 94.84C66.9766 90.4767 63.3783 87.7283 58.7316 86.595C60.0916 94.1317 60.7716 100.875 60.7716 106.825C60.7716 116.288 59.1283 123.768 55.8416 129.265C52.6116 134.762 47.8233 137.51 41.4766 137.51C37.6233 137.51 34.2516 136.575 31.3616 134.705C28.4716 132.835 26.2333 130.285 24.6466 127.055C23.0599 123.768 22.2666 120 22.2666 115.75C22.2666 110.99 23.0883 106.513 24.7316 102.32C26.3749 98.1267 28.6416 94.4433 31.5316 91.27C34.4783 88.04 37.8499 85.5183 41.6466 83.705C45.4999 81.8917 49.6083 80.985 53.9716 80.985C60.2049 80.985 65.5883 82.2317 70.1216 84.725C74.6549 87.1617 78.1399 90.7033 80.5766 95.35C83.0133 99.94 84.2316 105.437 84.2316 111.84C84.2316 122.323 81.0299 131.163 74.6266 138.36ZM33.1466 115.75C33.1466 118.753 33.5433 121.53 34.3366 124.08C35.1299 126.573 36.1499 128.585 37.3966 130.115C38.6999 131.645 40.0599 132.41 41.4766 132.41C43.0633 132.41 44.4516 131.248 45.6416 128.925C46.8883 126.545 47.8516 123.343 48.5316 119.32C49.2683 115.297 49.6366 110.763 49.6366 105.72C49.6366 102.83 49.4949 99.855 49.2116 96.795C48.9849 93.735 48.5883 90.6183 48.0216 87.445C45.2449 88.805 42.7233 90.9017 40.4566 93.735C38.2466 96.5683 36.4616 99.9117 35.1016 103.765C33.7983 107.562 33.1466 111.557 33.1466 115.75ZM153.345 121.19C153.345 124.76 152.014 127.905 149.35 130.625C146.687 133.288 143.004 135.357 138.3 136.83C133.597 138.303 128.185 139.04 122.065 139.04C117.419 139.04 113.31 138.643 109.74 137.85C106.227 137.113 103.479 136.037 101.495 134.62C99.5119 133.203 98.5202 131.532 98.5202 129.605C98.5202 127.622 99.4836 125.808 101.41 124.165C103.394 122.465 105.944 121.105 109.06 120.085C112.177 119.065 115.464 118.555 118.92 118.555C123.964 118.555 128.214 119.547 131.67 121.53C135.127 123.513 137.45 126.318 138.64 129.945C141.19 127.792 142.465 124.873 142.465 121.19C142.465 118.3 141.785 115.75 140.425 113.54C139.122 111.33 137.28 109.602 134.9 108.355C132.577 107.108 129.885 106.485 126.825 106.485C123.369 106.485 119.855 107.108 116.285 108.355C112.715 109.545 109.315 111.245 106.085 113.455L100.645 117.705C99.6252 118.555 98.6619 118.98 97.7552 118.98C96.7352 118.98 95.8002 118.47 94.9502 117.45L94.2702 116.77C93.7036 116.203 93.4202 115.58 93.4202 114.9C93.4202 114.163 93.7886 113.512 94.5252 112.945C95.9419 111.755 97.5286 110.65 99.2852 109.63L131.33 84.3H100.22C98.3502 84.3 97.4152 83.4783 97.4152 81.835C97.4152 80.1917 98.3502 79.37 100.22 79.37H143.91C145.497 79.37 146.29 79.8517 146.29 80.815C146.29 81.495 145.894 82.1467 145.1 82.77L120.62 101.98C122.774 101.697 124.842 101.555 126.825 101.555C130.452 101.555 133.852 102.065 137.025 103.085C140.255 104.105 143.089 105.522 145.525 107.335C147.962 109.092 149.86 111.16 151.22 113.54C152.637 115.92 153.345 118.47 153.345 121.19ZM109.4 129.605C109.4 130.795 109.74 131.73 110.42 132.41C111.157 133.033 112.432 133.487 114.245 133.77C116.059 133.997 118.665 134.11 122.065 134.11C124.445 134.11 126.627 133.968 128.61 133.685C128.497 133.402 128.412 133.033 128.355 132.58C127.675 126.517 124.53 123.485 118.92 123.485C115.974 123.485 113.65 124.023 111.95 125.1C110.25 126.177 109.4 127.678 109.4 129.605ZM198.266 139.975C197.586 141.052 196.707 141.59 195.631 141.59C195.347 141.59 194.979 141.533 194.526 141.42L190.871 140.315C189.567 139.862 188.916 139.153 188.916 138.19C188.916 137.793 189.114 137.255 189.511 136.575C191.777 133.005 193.704 129.803 195.291 126.97C196.877 124.137 198.181 121.36 199.201 118.64C200.277 115.92 201.127 113.002 201.751 109.885C202.374 106.768 202.856 103.113 203.196 98.92H167.581C165.711 98.92 164.776 98.07 164.776 96.37C164.776 94.67 165.711 93.82 167.581 93.82H203.451C203.507 91.7233 203.564 89.485 203.621 87.105C203.677 84.725 203.706 82.175 203.706 79.455C203.706 77.5283 204.641 76.565 206.511 76.565H211.781C213.651 76.565 214.586 77.84 214.586 80.39C214.586 82.94 214.557 85.32 214.501 87.53C214.444 89.74 214.387 91.8367 214.331 93.82H232.436C234.306 93.82 235.241 94.67 235.241 96.37C235.241 98.07 234.306 98.92 232.436 98.92H213.991C213.651 103.227 213.112 107.052 212.376 110.395C211.696 113.682 210.732 116.798 209.486 119.745C208.296 122.692 206.766 125.78 204.896 129.01C203.082 132.183 200.872 135.838 198.266 139.975ZM317.12 79.88C317.176 80.1067 317.205 80.39 317.205 80.73C317.205 81.8067 316.355 82.4583 314.655 82.685L311.68 83.11C309.526 83.3367 308.223 82.7133 307.77 81.24L302.585 67.13C302.528 67.0167 302.471 66.9033 302.415 66.79C302.415 66.62 302.415 66.45 302.415 66.28C302.415 65.2033 303.321 64.5517 305.135 64.325L308.025 63.985C310.178 63.7583 311.51 64.3817 312.02 65.855L317.12 79.88ZM306.07 84.3C306.126 84.47 306.155 84.725 306.155 85.065C306.155 86.255 305.248 86.935 303.435 87.105L300.46 87.36C298.363 87.6433 297.088 87.02 296.635 85.49L291.365 70.445C291.308 70.275 291.28 70.02 291.28 69.68C291.28 68.49 292.186 67.81 294 67.64L296.975 67.385C299.128 67.1017 300.431 67.725 300.885 69.255L306.07 84.3ZM314.06 131.135C315.93 131.135 316.865 131.985 316.865 133.685C316.865 135.385 315.93 136.235 314.06 136.235H253.795C251.925 136.235 250.99 135.3 250.99 133.43V77.84C250.99 75.97 251.925 75.035 253.795 75.035H259.065C260.935 75.035 261.87 75.97 261.87 77.84V95.945L309.64 88.805C311.396 88.5217 312.53 89.2017 313.04 90.845C313.096 91.015 313.125 91.185 313.125 91.355C313.181 91.4683 313.21 91.5817 313.21 91.695C313.21 92.9983 312.416 93.735 310.83 93.905L261.87 101.215V131.135H314.06Z" fill="white"/>
</g>
<defs>
<clipPath id="clip0_2432_15">
<rect width="342" height="200" rx="20" fill="white"/>
</clipPath>
</defs>
</svg>
