<svg width="246" height="64" viewBox="0 0 246 64" fill="none" xmlns="http://www.w3.org/2000/svg">
<path d="M50.24 11.12H14.4C10.8654 11.12 8 13.9854 8 17.52V50.8C8 54.3346 10.8654 57.2 14.4 57.2H50.24C53.7746 57.2 56.64 54.3346 56.64 50.8V17.52C56.64 13.9854 53.7746 11.12 50.24 11.12Z" fill="white" stroke="#322C26" stroke-width="2.56"/>
<path d="M50.24 11.12H14.4C10.8654 11.12 8 13.9854 8 17.52C8 21.0546 10.8654 23.92 14.4 23.92H50.24C53.7746 23.92 56.64 21.0546 56.64 17.52C56.64 13.9854 53.7746 11.12 50.24 11.12Z" fill="#E78F47"/>
<path d="M56.64 17.52H8V23.92H56.64V17.52Z" fill="#E78F47"/>
<path d="M21.44 7.6C21.44 6.71634 20.7237 6 19.84 6C18.9563 6 18.24 6.71634 18.24 7.6V14.64C18.24 15.5237 18.9563 16.24 19.84 16.24C20.7237 16.24 21.44 15.5237 21.44 14.64V7.6Z" fill="#322C26"/>
<path d="M46.4 7.6C46.4 6.71634 45.6837 6 44.8 6C43.9163 6 43.2 6.71634 43.2 7.6V14.64C43.2 15.5237 43.9163 16.24 44.8 16.24C45.6837 16.24 46.4 15.5237 46.4 14.64V7.6Z" fill="#322C26"/>
<path d="M15.68 33.008C16.4576 33.008 17.088 32.3776 17.088 31.6C17.088 30.8224 16.4576 30.192 15.68 30.192C14.9024 30.192 14.272 30.8224 14.272 31.6C14.272 32.3776 14.9024 33.008 15.68 33.008Z" fill="#6B5F51"/>
<path d="M26.88 33.008C27.6576 33.008 28.288 32.3776 28.288 31.6C28.288 30.8224 27.6576 30.192 26.88 30.192C26.1024 30.192 25.472 30.8224 25.472 31.6C25.472 32.3776 26.1024 33.008 26.88 33.008Z" fill="#6B5F51"/>
<path d="M38.08 33.008C38.8576 33.008 39.488 32.3776 39.488 31.6C39.488 30.8224 38.8576 30.192 38.08 30.192C37.3024 30.192 36.672 30.8224 36.672 31.6C36.672 32.3776 37.3024 33.008 38.08 33.008Z" fill="#6B5F51"/>
<path d="M49.28 33.008C50.0576 33.008 50.688 32.3776 50.688 31.6C50.688 30.8224 50.0576 30.192 49.28 30.192C48.5024 30.192 47.872 30.8224 47.872 31.6C47.872 32.3776 48.5024 33.008 49.28 33.008Z" fill="#6B5F51"/>
<path d="M15.68 38.768C16.4576 38.768 17.088 38.1376 17.088 37.36C17.088 36.5824 16.4576 35.952 15.68 35.952C14.9024 35.952 14.272 36.5824 14.272 37.36C14.272 38.1376 14.9024 38.768 15.68 38.768Z" fill="#6B5F51"/>
<path d="M26.88 38.768C27.6576 38.768 28.288 38.1376 28.288 37.36C28.288 36.5824 27.6576 35.952 26.88 35.952C26.1024 35.952 25.472 36.5824 25.472 37.36C25.472 38.1376 26.1024 38.768 26.88 38.768Z" fill="#6B5F51"/>
<path d="M38.08 40.88C40.024 40.88 41.6 39.304 41.6 37.36C41.6 35.416 40.024 33.84 38.08 33.84C36.136 33.84 34.56 35.416 34.56 37.36C34.56 39.304 36.136 40.88 38.08 40.88Z" stroke="#D26A4A" stroke-width="1.6"/>
<path d="M49.28 38.768C50.0576 38.768 50.688 38.1376 50.688 37.36C50.688 36.5824 50.0576 35.952 49.28 35.952C48.5024 35.952 47.872 36.5824 47.872 37.36C47.872 38.1376 48.5024 38.768 49.28 38.768Z" fill="#6B5F51"/>
<path d="M15.68 44.528C16.4576 44.528 17.088 43.8976 17.088 43.12C17.088 42.3424 16.4576 41.712 15.68 41.712C14.9024 41.712 14.272 42.3424 14.272 43.12C14.272 43.8976 14.9024 44.528 15.68 44.528Z" fill="#6B5F51"/>
<path d="M26.88 44.528C27.6576 44.528 28.288 43.8976 28.288 43.12C28.288 42.3424 27.6576 41.712 26.88 41.712C26.1024 41.712 25.472 42.3424 25.472 43.12C25.472 43.8976 26.1024 44.528 26.88 44.528Z" fill="#6B5F51"/>
<path d="M38.08 44.528C38.8576 44.528 39.488 43.8976 39.488 43.12C39.488 42.3424 38.8576 41.712 38.08 41.712C37.3024 41.712 36.672 42.3424 36.672 43.12C36.672 43.8976 37.3024 44.528 38.08 44.528Z" fill="#6B5F51"/>
<path d="M49.28 44.528C50.0576 44.528 50.688 43.8976 50.688 43.12C50.688 42.3424 50.0576 41.712 49.28 41.712C48.5024 41.712 47.872 42.3424 47.872 43.12C47.872 43.8976 48.5024 44.528 49.28 44.528Z" fill="#6B5F51"/>
<path d="M15.68 50.288C16.4576 50.288 17.088 49.6576 17.088 48.88C17.088 48.1024 16.4576 47.472 15.68 47.472C14.9024 47.472 14.272 48.1024 14.272 48.88C14.272 49.6576 14.9024 50.288 15.68 50.288Z" fill="#6B5F51"/>
<path d="M26.88 50.288C27.6576 50.288 28.288 49.6576 28.288 48.88C28.288 48.1024 27.6576 47.472 26.88 47.472C26.1024 47.472 25.472 48.1024 25.472 48.88C25.472 49.6576 26.1024 50.288 26.88 50.288Z" fill="#6B5F51"/>
<path d="M38.08 50.288C38.8576 50.288 39.488 49.6576 39.488 48.88C39.488 48.1024 38.8576 47.472 38.08 47.472C37.3024 47.472 36.672 48.1024 36.672 48.88C36.672 49.6576 37.3024 50.288 38.08 50.288Z" fill="#6B5F51"/>
<path d="M49.28 50.288C50.0576 50.288 50.688 49.6576 50.688 48.88C50.688 48.1024 50.0576 47.472 49.28 47.472C48.5024 47.472 47.872 48.1024 47.872 48.88C47.872 49.6576 48.5024 50.288 49.28 50.288Z" fill="#6B5F51"/>
<path d="M65.21 25.962H84.834V28.448H65.21V25.962ZM71.15 33.904H80.698V36.104H71.15V33.904ZM69.192 30.186H80.302V32.496H71.788V43.958H69.192V30.186ZM79.774 30.186H82.37V41.12C82.37 41.7653 82.2893 42.2787 82.128 42.66C81.9813 43.0413 81.6807 43.3347 81.226 43.54C80.786 43.7453 80.2433 43.87 79.598 43.914C78.9527 43.958 78.1827 43.98 77.288 43.98C77.244 43.6133 77.1413 43.1807 76.98 42.682C76.8333 42.198 76.672 41.78 76.496 41.428C76.8773 41.4427 77.2587 41.4573 77.64 41.472C78.0213 41.4867 78.3587 41.494 78.652 41.494C78.96 41.494 79.1727 41.494 79.29 41.494C79.4807 41.4793 79.6053 41.4427 79.664 41.384C79.7373 41.3253 79.774 41.2227 79.774 41.076V30.186ZM72.03 23.3L74.758 23.916C74.2447 25.5587 73.5993 27.194 72.822 28.822C72.0593 30.4353 71.1353 31.9387 70.05 33.332C68.9793 34.7253 67.7253 35.9207 66.288 36.918C66.156 36.7273 65.98 36.5073 65.76 36.258C65.5547 35.994 65.342 35.7447 65.122 35.51C64.9167 35.2607 64.726 35.0553 64.55 34.894C65.518 34.2487 66.398 33.486 67.19 32.606C67.9967 31.726 68.708 30.7727 69.324 29.746C69.9547 28.7047 70.49 27.6413 70.93 26.556C71.3847 25.456 71.7513 24.3707 72.03 23.3ZM71.15 37.534H80.698V39.734H71.15V37.534ZM97.242 30.362H104.502V32.76H97.242V30.362ZM97.462 40.46H104.81V42.792H97.462V40.46ZM100.718 26.292C100.337 26.9373 99.86 27.634 99.288 28.382C98.716 29.13 98.0927 29.8633 97.418 30.582C96.7433 31.3007 96.0393 31.946 95.306 32.518C95.1447 32.166 94.9173 31.77 94.624 31.33C94.3453 30.8753 94.074 30.5013 93.81 30.208C94.558 29.68 95.2913 29.0347 96.01 28.272C96.7287 27.4947 97.3813 26.7027 97.968 25.896C98.5547 25.0747 99.024 24.3193 99.376 23.63H101.884C102.383 24.3927 102.947 25.1773 103.578 25.984C104.223 26.7907 104.898 27.5387 105.602 28.228C106.321 28.9173 107.032 29.482 107.736 29.922C107.472 30.2593 107.193 30.648 106.9 31.088C106.607 31.528 106.35 31.9607 106.13 32.386C105.485 31.8727 104.817 31.264 104.128 30.56C103.453 29.8413 102.815 29.108 102.214 28.36C101.627 27.612 101.129 26.9227 100.718 26.292ZM96.098 34.718H105.91V43.87H103.38V37.028H98.518V43.958H96.098V34.718ZM89.96 23.322L92.248 24.18C91.9547 24.7373 91.6467 25.3167 91.324 25.918C91.0013 26.5193 90.686 27.0913 90.378 27.634C90.07 28.1767 89.7767 28.646 89.498 29.042L87.738 28.294C88.002 27.8393 88.2733 27.326 88.552 26.754C88.8307 26.182 89.0947 25.5953 89.344 24.994C89.5933 24.3927 89.7987 23.8353 89.96 23.322ZM92.49 25.94L94.646 26.908C94.118 27.744 93.5387 28.624 92.908 29.548C92.2773 30.4573 91.6467 31.3373 91.016 32.188C90.3853 33.024 89.7913 33.7573 89.234 34.388L87.694 33.53C88.1047 33.0313 88.53 32.474 88.97 31.858C89.41 31.2273 89.8427 30.5747 90.268 29.9C90.708 29.2107 91.1187 28.5287 91.5 27.854C91.8813 27.1647 92.2113 26.5267 92.49 25.94ZM86.572 28.536L87.848 26.732C88.2293 27.0693 88.618 27.4433 89.014 27.854C89.4247 28.25 89.7987 28.6533 90.136 29.064C90.488 29.46 90.752 29.8193 90.928 30.142L89.586 32.188C89.41 31.836 89.1533 31.4473 88.816 31.022C88.4933 30.5967 88.134 30.164 87.738 29.724C87.342 29.284 86.9533 28.888 86.572 28.536ZM91.852 31.176L93.59 30.45C93.8687 30.9487 94.14 31.484 94.404 32.056C94.6827 32.6133 94.9173 33.1633 95.108 33.706C95.3133 34.234 95.4527 34.7107 95.526 35.136L93.656 35.972C93.5827 35.5467 93.4507 35.0627 93.26 34.52C93.084 33.9627 92.8713 33.3907 92.622 32.804C92.3727 32.2173 92.116 31.6747 91.852 31.176ZM86.55 33.002C87.562 32.9727 88.772 32.9287 90.18 32.87C91.588 32.8113 93.018 32.7527 94.47 32.694L94.448 34.784C93.084 34.8867 91.7273 34.982 90.378 35.07C89.0433 35.158 87.8407 35.2387 86.77 35.312L86.55 33.002ZM92.314 36.654L94.162 36.06C94.4407 36.6907 94.7047 37.38 94.954 38.128C95.218 38.8613 95.416 39.5067 95.548 40.064L93.59 40.768C93.4873 40.2107 93.3113 39.5507 93.062 38.788C92.8127 38.0107 92.5633 37.2993 92.314 36.654ZM87.518 36.236L89.696 36.632C89.5787 37.688 89.4027 38.7293 89.168 39.756C88.9333 40.7827 88.662 41.648 88.354 42.352C88.2073 42.2493 88.0093 42.132 87.76 42C87.5107 41.8827 87.254 41.7653 86.99 41.648C86.7407 41.5307 86.5207 41.4427 86.33 41.384C86.6527 40.724 86.9093 39.9393 87.1 39.03C87.2907 38.106 87.43 37.1747 87.518 36.236ZM89.982 34.168H92.292V43.98H89.982V34.168ZM114.512 41.45H125.226V43.408H114.512V41.45ZM117.658 27.92H120.21V30.582H117.658V27.92ZM109.54 29.438H128.68V33.838H126.084V31.418H112.026V33.838H109.54V29.438ZM114.424 32.342H125.182V37.27H114.424V35.4H122.564V34.234H114.424V32.342ZM114.534 38.282H126.854V43.98H124.236V40.218H114.534V38.282ZM112.972 32.342H115.48V44.002H112.972V32.342ZM111.74 24.84H118.692V26.93H111.74V24.84ZM120.65 24.84H129.186V26.93H120.65V24.84ZM111.85 23.124L114.292 23.806C113.867 24.7887 113.324 25.7493 112.664 26.688C112.019 27.612 111.373 28.3967 110.728 29.042C110.567 28.8953 110.354 28.734 110.09 28.558C109.826 28.382 109.562 28.206 109.298 28.03C109.034 27.854 108.792 27.7147 108.572 27.612C109.247 27.0693 109.877 26.3947 110.464 25.588C111.051 24.7813 111.513 23.96 111.85 23.124ZM120.804 23.124L123.312 23.74C122.916 24.6933 122.403 25.6027 121.772 26.468C121.141 27.3187 120.496 28.03 119.836 28.602C119.645 28.47 119.411 28.3307 119.132 28.184C118.868 28.0227 118.589 27.8687 118.296 27.722C118.003 27.5607 117.746 27.436 117.526 27.348C118.23 26.8493 118.868 26.226 119.44 25.478C120.027 24.7153 120.481 23.9307 120.804 23.124ZM112.576 26.468L114.82 25.852C115.084 26.2333 115.348 26.666 115.612 27.15C115.891 27.6193 116.103 28.0227 116.25 28.36L113.874 29.042C113.771 28.7047 113.588 28.294 113.324 27.81C113.075 27.3113 112.825 26.864 112.576 26.468ZM122.388 26.512L124.72 25.896C125.043 26.2627 125.365 26.6807 125.688 27.15C126.025 27.6193 126.282 28.0373 126.458 28.404L124.016 29.086C123.884 28.734 123.657 28.316 123.334 27.832C123.011 27.348 122.696 26.908 122.388 26.512ZM141.308 30.406V32.276H147.952V30.406H141.308ZM141.308 26.468V28.316H147.952V26.468H141.308ZM138.91 24.246H150.482V34.52H138.91V24.246ZM138.778 36.412H150.702V38.788H138.778V36.412ZM137.238 40.878H151.45V43.276H137.238V40.878ZM130.792 24.576H138.096V27.018H130.792V24.576ZM130.99 30.912H137.722V33.332H130.99V30.912ZM130.528 39.272C131.173 39.096 131.892 38.898 132.684 38.678C133.491 38.4433 134.341 38.1867 135.236 37.908C136.131 37.6147 137.011 37.3287 137.876 37.05L138.338 39.558C137.106 39.9687 135.859 40.3867 134.598 40.812C133.337 41.2373 132.178 41.6187 131.122 41.956L130.528 39.272ZM133.212 25.544H135.742V39.052L133.212 39.47V25.544ZM143.574 25.192H145.796V33.464H146.038V42H143.332V33.464H143.574V25.192ZM158.798 24.576C159.15 24.7813 159.553 25.0233 160.008 25.302C160.463 25.5807 160.925 25.8667 161.394 26.16C161.878 26.4533 162.325 26.7393 162.736 27.018C163.161 27.282 163.521 27.5167 163.814 27.722L162.164 30.164C161.871 29.944 161.511 29.6947 161.086 29.416C160.661 29.1373 160.221 28.8513 159.766 28.558C159.311 28.2647 158.857 27.986 158.402 27.722C157.962 27.4433 157.559 27.2013 157.192 26.996L158.798 24.576ZM154.706 40.196C155.542 40.0493 156.378 39.8733 157.214 39.668C158.065 39.448 158.908 39.1767 159.744 38.854C160.595 38.5313 161.416 38.1573 162.208 37.732C163.455 37.028 164.613 36.236 165.684 35.356C166.769 34.476 167.737 33.5373 168.588 32.54C169.453 31.5427 170.179 30.5233 170.766 29.482L172.46 32.474C171.433 33.9993 170.165 35.4367 168.654 36.786C167.158 38.1353 165.508 39.3307 163.704 40.372C162.956 40.7973 162.135 41.1933 161.24 41.56C160.36 41.9267 159.487 42.242 158.622 42.506C157.771 42.7847 157.016 42.9827 156.356 43.1L154.706 40.196ZM155.41 29.592C155.777 29.7973 156.187 30.0393 156.642 30.318C157.111 30.582 157.581 30.8607 158.05 31.154C158.519 31.4473 158.959 31.726 159.37 31.99C159.795 32.254 160.147 32.4887 160.426 32.694L158.82 35.158C158.497 34.938 158.131 34.696 157.72 34.432C157.309 34.1533 156.869 33.8673 156.4 33.574C155.945 33.266 155.491 32.98 155.036 32.716C154.596 32.452 154.185 32.2247 153.804 32.034L155.41 29.592ZM192.348 27.084C192.26 27.216 192.128 27.4213 191.952 27.7C191.791 27.9787 191.666 28.2353 191.578 28.47C191.27 29.1593 190.889 29.9293 190.434 30.78C189.994 31.6307 189.488 32.4887 188.916 33.354C188.359 34.2047 187.765 35.004 187.134 35.752C186.313 36.676 185.403 37.5927 184.406 38.502C183.423 39.3967 182.382 40.2253 181.282 40.988C180.197 41.736 179.082 42.3813 177.938 42.924L175.672 40.548C176.86 40.0933 178.011 39.5213 179.126 38.832C180.241 38.1427 181.275 37.3947 182.228 36.588C183.181 35.7813 184.003 34.9967 184.692 34.234C185.176 33.6767 185.631 33.0827 186.056 32.452C186.496 31.8213 186.885 31.198 187.222 30.582C187.559 29.9513 187.809 29.372 187.97 28.844C187.823 28.844 187.559 28.844 187.178 28.844C186.797 28.844 186.349 28.844 185.836 28.844C185.337 28.844 184.809 28.844 184.252 28.844C183.695 28.844 183.159 28.844 182.646 28.844C182.147 28.844 181.707 28.844 181.326 28.844C180.945 28.844 180.673 28.844 180.512 28.844C180.204 28.844 179.881 28.8587 179.544 28.888C179.207 28.9027 178.884 28.9247 178.576 28.954C178.283 28.9687 178.055 28.9833 177.894 28.998V25.874C178.114 25.8887 178.385 25.9107 178.708 25.94C179.031 25.9693 179.353 25.9913 179.676 26.006C180.013 26.0207 180.292 26.028 180.512 26.028C180.703 26.028 181.003 26.028 181.414 26.028C181.825 26.028 182.294 26.028 182.822 26.028C183.35 26.028 183.893 26.028 184.45 26.028C185.022 26.028 185.565 26.028 186.078 26.028C186.606 26.028 187.061 26.028 187.442 26.028C187.823 26.028 188.102 26.028 188.278 26.028C188.762 26.028 189.202 25.9987 189.598 25.94C190.009 25.8813 190.324 25.8153 190.544 25.742L192.348 27.084ZM187.42 33.926C187.992 34.3807 188.601 34.9087 189.246 35.51C189.891 36.1113 190.529 36.7347 191.16 37.38C191.791 38.0253 192.37 38.6487 192.898 39.25C193.441 39.8367 193.895 40.35 194.262 40.79L191.754 42.968C191.211 42.22 190.588 41.4427 189.884 40.636C189.195 39.8293 188.461 39.03 187.684 38.238C186.921 37.4313 186.144 36.6687 185.352 35.95L187.42 33.926ZM200.422 25.126C200.789 25.1847 201.185 25.2287 201.61 25.258C202.035 25.2727 202.424 25.28 202.776 25.28C203.055 25.28 203.495 25.28 204.096 25.28C204.697 25.28 205.372 25.28 206.12 25.28C206.868 25.28 207.616 25.28 208.364 25.28C209.112 25.28 209.772 25.28 210.344 25.28C210.931 25.28 211.356 25.28 211.62 25.28C212.001 25.28 212.397 25.2727 212.808 25.258C213.219 25.2287 213.615 25.1847 213.996 25.126V27.964C213.615 27.9347 213.219 27.9127 212.808 27.898C212.397 27.8833 212.001 27.876 211.62 27.876C211.356 27.876 210.931 27.876 210.344 27.876C209.772 27.876 209.112 27.876 208.364 27.876C207.616 27.876 206.868 27.876 206.12 27.876C205.372 27.876 204.697 27.876 204.096 27.876C203.509 27.876 203.077 27.876 202.798 27.876C202.417 27.876 202.006 27.8833 201.566 27.898C201.141 27.9127 200.759 27.9347 200.422 27.964V25.126ZM197.87 30.758C198.193 30.7873 198.537 30.8167 198.904 30.846C199.285 30.8753 199.645 30.89 199.982 30.89C200.173 30.89 200.554 30.89 201.126 30.89C201.698 30.89 202.387 30.89 203.194 30.89C204.001 30.89 204.866 30.89 205.79 30.89C206.729 30.89 207.66 30.89 208.584 30.89C209.523 30.89 210.395 30.89 211.202 30.89C212.009 30.89 212.691 30.89 213.248 30.89C213.82 30.89 214.201 30.89 214.392 30.89C214.627 30.89 214.942 30.8827 215.338 30.868C215.749 30.8387 216.101 30.802 216.394 30.758V33.618C216.13 33.5887 215.807 33.574 215.426 33.574C215.045 33.5593 214.7 33.552 214.392 33.552C214.201 33.552 213.82 33.552 213.248 33.552C212.691 33.552 212.009 33.552 211.202 33.552C210.395 33.552 209.523 33.552 208.584 33.552C207.66 33.552 206.729 33.552 205.79 33.552C204.866 33.552 204.001 33.552 203.194 33.552C202.387 33.552 201.698 33.552 201.126 33.552C200.554 33.552 200.173 33.552 199.982 33.552C199.659 33.552 199.3 33.5593 198.904 33.574C198.523 33.5887 198.178 33.6107 197.87 33.64V30.758ZM209.134 32.276C209.134 33.7133 209.009 35.004 208.76 36.148C208.511 37.2773 208.151 38.2967 207.682 39.206C207.418 39.7047 207.066 40.218 206.626 40.746C206.186 41.274 205.68 41.7727 205.108 42.242C204.536 42.7113 203.92 43.1073 203.26 43.43L200.686 41.56C201.463 41.252 202.211 40.812 202.93 40.24C203.649 39.668 204.228 39.0593 204.668 38.414C205.225 37.5633 205.599 36.6247 205.79 35.598C205.981 34.5713 206.076 33.4713 206.076 32.298L209.134 32.276ZM229.544 25.412C229.397 25.7347 229.243 26.1013 229.082 26.512C228.921 26.908 228.759 27.3553 228.598 27.854C228.466 28.2647 228.297 28.7927 228.092 29.438C227.887 30.0687 227.659 30.7653 227.41 31.528C227.161 32.276 226.897 33.0533 226.618 33.86C226.354 34.652 226.097 35.422 225.848 36.17C225.599 36.918 225.364 37.6 225.144 38.216C224.924 38.8173 224.733 39.3087 224.572 39.69L221.316 39.8C221.521 39.3307 221.749 38.7587 221.998 38.084C222.247 37.4093 222.511 36.676 222.79 35.884C223.069 35.0773 223.34 34.256 223.604 33.42C223.883 32.584 224.139 31.7773 224.374 31C224.623 30.2227 224.843 29.504 225.034 28.844C225.239 28.184 225.401 27.6487 225.518 27.238C225.665 26.666 225.775 26.1967 225.848 25.83C225.936 25.4487 226.002 25.0673 226.046 24.686L229.544 25.412ZM233.482 32.518C233.878 33.1047 234.303 33.794 234.758 34.586C235.213 35.378 235.66 36.2067 236.1 37.072C236.555 37.9227 236.973 38.744 237.354 39.536C237.735 40.328 238.051 41.0393 238.3 41.67L235.33 42.99C235.081 42.3153 234.773 41.5527 234.406 40.702C234.054 39.8513 233.665 38.986 233.24 38.106C232.829 37.226 232.404 36.3973 231.964 35.62C231.539 34.828 231.128 34.168 230.732 33.64L233.482 32.518ZM221.118 38.832C221.617 38.8027 222.218 38.766 222.922 38.722C223.641 38.6633 224.411 38.5973 225.232 38.524C226.053 38.436 226.889 38.348 227.74 38.26C228.605 38.172 229.449 38.084 230.27 37.996C231.106 37.8933 231.883 37.798 232.602 37.71C233.321 37.622 233.929 37.5413 234.428 37.468L235.088 40.284C234.545 40.3573 233.893 40.438 233.13 40.526C232.382 40.614 231.575 40.7093 230.71 40.812C229.845 40.9 228.965 40.9953 228.07 41.098C227.175 41.2007 226.303 41.296 225.452 41.384C224.601 41.472 223.817 41.5527 223.098 41.626C222.379 41.6847 221.771 41.7433 221.272 41.802C220.993 41.8313 220.663 41.8753 220.282 41.934C219.915 41.978 219.556 42.022 219.204 42.066L218.698 38.854C219.065 38.854 219.468 38.854 219.908 38.854C220.363 38.854 220.766 38.8467 221.118 38.832Z" fill="#322C26"/>
</svg>
