<svg xmlns="http://www.w3.org/2000/svg" viewBox="0 0 300 60" width="300" height="60"><g transform="translate(0 0) scale(0.6)"><rect x="12" y="18" width="76" height="72" rx="10" fill="white" stroke="#322c26" stroke-width="4"></rect><rect x="12" y="18" width="76" height="20" rx="10" fill="#e78f47"></rect><rect x="12" y="28" width="76" height="10" fill="#e78f47"></rect><rect x="28" y="10" width="5" height="16" rx="2.5" fill="#322c26"></rect><rect x="67" y="10" width="5" height="16" rx="2.5" fill="#322c26"></rect><circle cx="24" cy="50" r="2.2" fill="#6b5f51"></circle><circle cx="41.5" cy="50" r="2.2" fill="#6b5f51"></circle><circle cx="59" cy="50" r="2.2" fill="#6b5f51"></circle><circle cx="76.5" cy="50" r="2.2" fill="#6b5f51"></circle><circle cx="24" cy="59" r="2.2" fill="#6b5f51"></circle><circle cx="41.5" cy="59" r="2.2" fill="#6b5f51"></circle><circle cx="59" cy="59" r="5.5" fill="none" stroke="#d26a4a" stroke-width="2.5"></circle><circle cx="76.5" cy="59" r="2.2" fill="#6b5f51"></circle><circle cx="24" cy="68" r="2.2" fill="#6b5f51"></circle><circle cx="41.5" cy="68" r="2.2" fill="#6b5f51"></circle><circle cx="59" cy="68" r="2.2" fill="#6b5f51"></circle><circle cx="76.5" cy="68" r="2.2" fill="#6b5f51"></circle><circle cx="24" cy="77" r="2.2" fill="#6b5f51"></circle><circle cx="41.5" cy="77" r="2.2" fill="#6b5f51"></circle><circle cx="59" cy="77" r="2.2" fill="#6b5f51"></circle><circle cx="76.5" cy="77" r="2.2" fill="#6b5f51"></circle></g><line x1="74" y1="8" x2="74" y2="52" stroke="#dfd5c6" stroke-width="2"></line><text x="88" y="22" font-family="&#39;Hiragino Kaku Gothic ProN&#39;, &#39;Hiragino Sans&#39;, &#39;Yu Gothic&#39;, &#39;Noto Sans JP&#39;, sans-serif" font-weight="500" font-size="13" fill="#9a8d7e" letter-spacing="0.1em" dominant-baseline="alphabetic">有給</text><text x="88" y="46" font-family="&#39;Hiragino Kaku Gothic ProN&#39;, &#39;Hiragino Sans&#39;, &#39;Yu Gothic&#39;, &#39;Noto Sans JP&#39;, sans-serif" font-weight="700" font-size="20" fill="#322c26" letter-spacing="0.04em" dominant-baseline="alphabetic">管理システム</text></svg>