<svg width="400" height="64" viewBox="0 0 400 64" fill="none" xmlns="http://www.w3.org/2000/svg">
<path d="M49.92 11.52H14.08C10.5454 11.52 7.68 14.3854 7.68 17.92V51.2C7.68 54.7346 10.5454 57.6 14.08 57.6H49.92C53.4546 57.6 56.32 54.7346 56.32 51.2V17.92C56.32 14.3854 53.4546 11.52 49.92 11.52Z" fill="white" stroke="#322C26" stroke-width="2.56"/>
<path d="M49.92 11.52H14.08C10.5454 11.52 7.68 14.3854 7.68 17.92C7.68 21.4546 10.5454 24.32 14.08 24.32H49.92C53.4546 24.32 56.32 21.4546 56.32 17.92C56.32 14.3854 53.4546 11.52 49.92 11.52Z" fill="#E78F47"/>
<path d="M56.32 17.92H7.68V24.32H56.32V17.92Z" fill="#E78F47"/>
<path d="M21.12 8C21.12 7.11635 20.4037 6.4 19.52 6.4C18.6363 6.4 17.92 7.11635 17.92 8V15.04C17.92 15.9237 18.6363 16.64 19.52 16.64C20.4037 16.64 21.12 15.9237 21.12 15.04V8Z" fill="#322C26"/>
<path d="M46.08 8C46.08 7.11635 45.3637 6.4 44.48 6.4C43.5963 6.4 42.88 7.11635 42.88 8V15.04C42.88 15.9237 43.5963 16.64 44.48 16.64C45.3637 16.64 46.08 15.9237 46.08 15.04V8Z" fill="#322C26"/>
<path d="M15.36 33.408C16.1376 33.408 16.768 32.7776 16.768 32C16.768 31.2224 16.1376 30.592 15.36 30.592C14.5824 30.592 13.952 31.2224 13.952 32C13.952 32.7776 14.5824 33.408 15.36 33.408Z" fill="#6B5F51"/>
<path d="M26.56 33.408C27.3376 33.408 27.968 32.7776 27.968 32C27.968 31.2224 27.3376 30.592 26.56 30.592C25.7824 30.592 25.152 31.2224 25.152 32C25.152 32.7776 25.7824 33.408 26.56 33.408Z" fill="#6B5F51"/>
<path d="M37.76 33.408C38.5376 33.408 39.168 32.7776 39.168 32C39.168 31.2224 38.5376 30.592 37.76 30.592C36.9824 30.592 36.352 31.2224 36.352 32C36.352 32.7776 36.9824 33.408 37.76 33.408Z" fill="#6B5F51"/>
<path d="M48.96 33.408C49.7376 33.408 50.368 32.7776 50.368 32C50.368 31.2224 49.7376 30.592 48.96 30.592C48.1824 30.592 47.552 31.2224 47.552 32C47.552 32.7776 48.1824 33.408 48.96 33.408Z" fill="#6B5F51"/>
<path d="M15.36 39.168C16.1376 39.168 16.768 38.5376 16.768 37.76C16.768 36.9824 16.1376 36.352 15.36 36.352C14.5824 36.352 13.952 36.9824 13.952 37.76C13.952 38.5376 14.5824 39.168 15.36 39.168Z" fill="#6B5F51"/>
<path d="M26.56 39.168C27.3376 39.168 27.968 38.5376 27.968 37.76C27.968 36.9824 27.3376 36.352 26.56 36.352C25.7824 36.352 25.152 36.9824 25.152 37.76C25.152 38.5376 25.7824 39.168 26.56 39.168Z" fill="#6B5F51"/>
<path d="M37.76 41.28C39.704 41.28 41.28 39.704 41.28 37.76C41.28 35.816 39.704 34.24 37.76 34.24C35.816 34.24 34.24 35.816 34.24 37.76C34.24 39.704 35.816 41.28 37.76 41.28Z" stroke="#D26A4A" stroke-width="1.6"/>
<path d="M48.96 39.168C49.7376 39.168 50.368 38.5376 50.368 37.76C50.368 36.9824 49.7376 36.352 48.96 36.352C48.1824 36.352 47.552 36.9824 47.552 37.76C47.552 38.5376 48.1824 39.168 48.96 39.168Z" fill="#6B5F51"/>
<path d="M15.36 44.928C16.1376 44.928 16.768 44.2976 16.768 43.52C16.768 42.7424 16.1376 42.112 15.36 42.112C14.5824 42.112 13.952 42.7424 13.952 43.52C13.952 44.2976 14.5824 44.928 15.36 44.928Z" fill="#6B5F51"/>
<path d="M26.56 44.928C27.3376 44.928 27.968 44.2976 27.968 43.52C27.968 42.7424 27.3376 42.112 26.56 42.112C25.7824 42.112 25.152 42.7424 25.152 43.52C25.152 44.2976 25.7824 44.928 26.56 44.928Z" fill="#6B5F51"/>
<path d="M37.76 44.928C38.5376 44.928 39.168 44.2976 39.168 43.52C39.168 42.7424 38.5376 42.112 37.76 42.112C36.9824 42.112 36.352 42.7424 36.352 43.52C36.352 44.2976 36.9824 44.928 37.76 44.928Z" fill="#6B5F51"/>
<path d="M48.96 44.928C49.7376 44.928 50.368 44.2976 50.368 43.52C50.368 42.7424 49.7376 42.112 48.96 42.112C48.1824 42.112 47.552 42.7424 47.552 43.52C47.552 44.2976 48.1824 44.928 48.96 44.928Z" fill="#6B5F51"/>
<path d="M15.36 50.688C16.1376 50.688 16.768 50.0576 16.768 49.28C16.768 48.5024 16.1376 47.872 15.36 47.872C14.5824 47.872 13.952 48.5024 13.952 49.28C13.952 50.0576 14.5824 50.688 15.36 50.688Z" fill="#6B5F51"/>
<path d="M26.56 50.688C27.3376 50.688 27.968 50.0576 27.968 49.28C27.968 48.5024 27.3376 47.872 26.56 47.872C25.7824 47.872 25.152 48.5024 25.152 49.28C25.152 50.0576 25.7824 50.688 26.56 50.688Z" fill="#6B5F51"/>
<path d="M37.76 50.688C38.5376 50.688 39.168 50.0576 39.168 49.28C39.168 48.5024 38.5376 47.872 37.76 47.872C36.9824 47.872 36.352 48.5024 36.352 49.28C36.352 50.0576 36.9824 50.688 37.76 50.688Z" fill="#6B5F51"/>
<path d="M48.96 50.688C49.7376 50.688 50.368 50.0576 50.368 49.28C50.368 48.5024 49.7376 47.872 48.96 47.872C48.1824 47.872 47.552 48.5024 47.552 49.28C47.552 50.0576 48.1824 50.688 48.96 50.688Z" fill="#6B5F51"/>
<path d="M73.21 28.962H92.834V31.448H73.21V28.962ZM79.15 36.904H88.698V39.104H79.15V36.904ZM77.192 33.186H88.302V35.496H79.788V46.958H77.192V33.186ZM87.774 33.186H90.37V44.12C90.37 44.7653 90.2893 45.2787 90.128 45.66C89.9813 46.0413 89.6807 46.3347 89.226 46.54C88.786 46.7453 88.2433 46.87 87.598 46.914C86.9527 46.958 86.1827 46.98 85.288 46.98C85.244 46.6133 85.1413 46.1807 84.98 45.682C84.8333 45.198 84.672 44.78 84.496 44.428C84.8773 44.4427 85.2587 44.4573 85.64 44.472C86.0213 44.4867 86.3587 44.494 86.652 44.494C86.96 44.494 87.1727 44.494 87.29 44.494C87.4807 44.4793 87.6053 44.4427 87.664 44.384C87.7373 44.3253 87.774 44.2227 87.774 44.076V33.186ZM80.03 26.3L82.758 26.916C82.2447 28.5587 81.5993 30.194 80.822 31.822C80.0593 33.4353 79.1353 34.9387 78.05 36.332C76.9793 37.7253 75.7253 38.9207 74.288 39.918C74.156 39.7273 73.98 39.5073 73.76 39.258C73.5547 38.994 73.342 38.7447 73.122 38.51C72.9167 38.2607 72.726 38.0553 72.55 37.894C73.518 37.2487 74.398 36.486 75.19 35.606C75.9967 34.726 76.708 33.7727 77.324 32.746C77.9547 31.7047 78.49 30.6413 78.93 29.556C79.3847 28.456 79.7513 27.3707 80.03 26.3ZM79.15 40.534H88.698V42.734H79.15V40.534ZM105.242 33.362H112.502V35.76H105.242V33.362ZM105.462 43.46H112.81V45.792H105.462V43.46ZM108.718 29.292C108.337 29.9373 107.86 30.634 107.288 31.382C106.716 32.13 106.093 32.8633 105.418 33.582C104.743 34.3007 104.039 34.946 103.306 35.518C103.145 35.166 102.917 34.77 102.624 34.33C102.345 33.8753 102.074 33.5013 101.81 33.208C102.558 32.68 103.291 32.0347 104.01 31.272C104.729 30.4947 105.381 29.7027 105.968 28.896C106.555 28.0747 107.024 27.3193 107.376 26.63H109.884C110.383 27.3927 110.947 28.1773 111.578 28.984C112.223 29.7907 112.898 30.5387 113.602 31.228C114.321 31.9173 115.032 32.482 115.736 32.922C115.472 33.2593 115.193 33.648 114.9 34.088C114.607 34.528 114.35 34.9607 114.13 35.386C113.485 34.8727 112.817 34.264 112.128 33.56C111.453 32.8413 110.815 32.108 110.214 31.36C109.627 30.612 109.129 29.9227 108.718 29.292ZM104.098 37.718H113.91V46.87H111.38V40.028H106.518V46.958H104.098V37.718ZM97.96 26.322L100.248 27.18C99.9547 27.7373 99.6467 28.3167 99.324 28.918C99.0013 29.5193 98.686 30.0913 98.378 30.634C98.07 31.1767 97.7767 31.646 97.498 32.042L95.738 31.294C96.002 30.8393 96.2733 30.326 96.552 29.754C96.8307 29.182 97.0947 28.5953 97.344 27.994C97.5933 27.3927 97.7987 26.8353 97.96 26.322ZM100.49 28.94L102.646 29.908C102.118 30.744 101.539 31.624 100.908 32.548C100.277 33.4573 99.6467 34.3373 99.016 35.188C98.3853 36.024 97.7913 36.7573 97.234 37.388L95.694 36.53C96.1047 36.0313 96.53 35.474 96.97 34.858C97.41 34.2273 97.8427 33.5747 98.268 32.9C98.708 32.2107 99.1187 31.5287 99.5 30.854C99.8813 30.1647 100.211 29.5267 100.49 28.94ZM94.572 31.536L95.848 29.732C96.2293 30.0693 96.618 30.4433 97.014 30.854C97.4247 31.25 97.7987 31.6533 98.136 32.064C98.488 32.46 98.752 32.8193 98.928 33.142L97.586 35.188C97.41 34.836 97.1533 34.4473 96.816 34.022C96.4933 33.5967 96.134 33.164 95.738 32.724C95.342 32.284 94.9533 31.888 94.572 31.536ZM99.852 34.176L101.59 33.45C101.869 33.9487 102.14 34.484 102.404 35.056C102.683 35.6133 102.917 36.1633 103.108 36.706C103.313 37.234 103.453 37.7107 103.526 38.136L101.656 38.972C101.583 38.5467 101.451 38.0627 101.26 37.52C101.084 36.9627 100.871 36.3907 100.622 35.804C100.373 35.2173 100.116 34.6747 99.852 34.176ZM94.55 36.002C95.562 35.9727 96.772 35.9287 98.18 35.87C99.588 35.8113 101.018 35.7527 102.47 35.694L102.448 37.784C101.084 37.8867 99.7273 37.982 98.378 38.07C97.0433 38.158 95.8407 38.2387 94.77 38.312L94.55 36.002ZM100.314 39.654L102.162 39.06C102.441 39.6907 102.705 40.38 102.954 41.128C103.218 41.8613 103.416 42.5067 103.548 43.064L101.59 43.768C101.487 43.2107 101.311 42.5507 101.062 41.788C100.813 41.0107 100.563 40.2993 100.314 39.654ZM95.518 39.236L97.696 39.632C97.5787 40.688 97.4027 41.7293 97.168 42.756C96.9333 43.7827 96.662 44.648 96.354 45.352C96.2073 45.2493 96.0093 45.132 95.76 45C95.5107 44.8827 95.254 44.7653 94.99 44.648C94.7407 44.5307 94.5207 44.4427 94.33 44.384C94.6527 43.724 94.9093 42.9393 95.1 42.03C95.2907 41.106 95.43 40.1747 95.518 39.236ZM97.982 37.168H100.292V46.98H97.982V37.168ZM122.512 44.45H133.226V46.408H122.512V44.45ZM125.658 30.92H128.21V33.582H125.658V30.92ZM117.54 32.438H136.68V36.838H134.084V34.418H120.026V36.838H117.54V32.438ZM122.424 35.342H133.182V40.27H122.424V38.4H130.564V37.234H122.424V35.342ZM122.534 41.282H134.854V46.98H132.236V43.218H122.534V41.282ZM120.972 35.342H123.48V47.002H120.972V35.342ZM119.74 27.84H126.692V29.93H119.74V27.84ZM128.65 27.84H137.186V29.93H128.65V27.84ZM119.85 26.124L122.292 26.806C121.867 27.7887 121.324 28.7493 120.664 29.688C120.019 30.612 119.373 31.3967 118.728 32.042C118.567 31.8953 118.354 31.734 118.09 31.558C117.826 31.382 117.562 31.206 117.298 31.03C117.034 30.854 116.792 30.7147 116.572 30.612C117.247 30.0693 117.877 29.3947 118.464 28.588C119.051 27.7813 119.513 26.96 119.85 26.124ZM128.804 26.124L131.312 26.74C130.916 27.6933 130.403 28.6027 129.772 29.468C129.141 30.3187 128.496 31.03 127.836 31.602C127.645 31.47 127.411 31.3307 127.132 31.184C126.868 31.0227 126.589 30.8687 126.296 30.722C126.003 30.5607 125.746 30.436 125.526 30.348C126.23 29.8493 126.868 29.226 127.44 28.478C128.027 27.7153 128.481 26.9307 128.804 26.124ZM120.576 29.468L122.82 28.852C123.084 29.2333 123.348 29.666 123.612 30.15C123.891 30.6193 124.103 31.0227 124.25 31.36L121.874 32.042C121.771 31.7047 121.588 31.294 121.324 30.81C121.075 30.3113 120.825 29.864 120.576 29.468ZM130.388 29.512L132.72 28.896C133.043 29.2627 133.365 29.6807 133.688 30.15C134.025 30.6193 134.282 31.0373 134.458 31.404L132.016 32.086C131.884 31.734 131.657 31.316 131.334 30.832C131.011 30.348 130.696 29.908 130.388 29.512ZM149.308 33.406V35.276H155.952V33.406H149.308ZM149.308 29.468V31.316H155.952V29.468H149.308ZM146.91 27.246H158.482V37.52H146.91V27.246ZM146.778 39.412H158.702V41.788H146.778V39.412ZM145.238 43.878H159.45V46.276H145.238V43.878ZM138.792 27.576H146.096V30.018H138.792V27.576ZM138.99 33.912H145.722V36.332H138.99V33.912ZM138.528 42.272C139.173 42.096 139.892 41.898 140.684 41.678C141.491 41.4433 142.341 41.1867 143.236 40.908C144.131 40.6147 145.011 40.3287 145.876 40.05L146.338 42.558C145.106 42.9687 143.859 43.3867 142.598 43.812C141.337 44.2373 140.178 44.6187 139.122 44.956L138.528 42.272ZM141.212 28.544H143.742V42.052L141.212 42.47V28.544ZM151.574 28.192H153.796V36.464H154.038V45H151.332V36.464H151.574V28.192ZM166.798 27.576C167.15 27.7813 167.553 28.0233 168.008 28.302C168.463 28.5807 168.925 28.8667 169.394 29.16C169.878 29.4533 170.325 29.7393 170.736 30.018C171.161 30.282 171.521 30.5167 171.814 30.722L170.164 33.164C169.871 32.944 169.511 32.6947 169.086 32.416C168.661 32.1373 168.221 31.8513 167.766 31.558C167.311 31.2647 166.857 30.986 166.402 30.722C165.962 30.4433 165.559 30.2013 165.192 29.996L166.798 27.576ZM162.706 43.196C163.542 43.0493 164.378 42.8733 165.214 42.668C166.065 42.448 166.908 42.1767 167.744 41.854C168.595 41.5313 169.416 41.1573 170.208 40.732C171.455 40.028 172.613 39.236 173.684 38.356C174.769 37.476 175.737 36.5373 176.588 35.54C177.453 34.5427 178.179 33.5233 178.766 32.482L180.46 35.474C179.433 36.9993 178.165 38.4367 176.654 39.786C175.158 41.1353 173.508 42.3307 171.704 43.372C170.956 43.7973 170.135 44.1933 169.24 44.56C168.36 44.9267 167.487 45.242 166.622 45.506C165.771 45.7847 165.016 45.9827 164.356 46.1L162.706 43.196ZM163.41 32.592C163.777 32.7973 164.187 33.0393 164.642 33.318C165.111 33.582 165.581 33.8607 166.05 34.154C166.519 34.4473 166.959 34.726 167.37 34.99C167.795 35.254 168.147 35.4887 168.426 35.694L166.82 38.158C166.497 37.938 166.131 37.696 165.72 37.432C165.309 37.1533 164.869 36.8673 164.4 36.574C163.945 36.266 163.491 35.98 163.036 35.716C162.596 35.452 162.185 35.2247 161.804 35.034L163.41 32.592ZM200.348 30.084C200.26 30.216 200.128 30.4213 199.952 30.7C199.791 30.9787 199.666 31.2353 199.578 31.47C199.27 32.1593 198.889 32.9293 198.434 33.78C197.994 34.6307 197.488 35.4887 196.916 36.354C196.359 37.2047 195.765 38.004 195.134 38.752C194.313 39.676 193.403 40.5927 192.406 41.502C191.423 42.3967 190.382 43.2253 189.282 43.988C188.197 44.736 187.082 45.3813 185.938 45.924L183.672 43.548C184.86 43.0933 186.011 42.5213 187.126 41.832C188.241 41.1427 189.275 40.3947 190.228 39.588C191.181 38.7813 192.003 37.9967 192.692 37.234C193.176 36.6767 193.631 36.0827 194.056 35.452C194.496 34.8213 194.885 34.198 195.222 33.582C195.559 32.9513 195.809 32.372 195.97 31.844C195.823 31.844 195.559 31.844 195.178 31.844C194.797 31.844 194.349 31.844 193.836 31.844C193.337 31.844 192.809 31.844 192.252 31.844C191.695 31.844 191.159 31.844 190.646 31.844C190.147 31.844 189.707 31.844 189.326 31.844C188.945 31.844 188.673 31.844 188.512 31.844C188.204 31.844 187.881 31.8587 187.544 31.888C187.207 31.9027 186.884 31.9247 186.576 31.954C186.283 31.9687 186.055 31.9833 185.894 31.998V28.874C186.114 28.8887 186.385 28.9107 186.708 28.94C187.031 28.9693 187.353 28.9913 187.676 29.006C188.013 29.0207 188.292 29.028 188.512 29.028C188.703 29.028 189.003 29.028 189.414 29.028C189.825 29.028 190.294 29.028 190.822 29.028C191.35 29.028 191.893 29.028 192.45 29.028C193.022 29.028 193.565 29.028 194.078 29.028C194.606 29.028 195.061 29.028 195.442 29.028C195.823 29.028 196.102 29.028 196.278 29.028C196.762 29.028 197.202 28.9987 197.598 28.94C198.009 28.8813 198.324 28.8153 198.544 28.742L200.348 30.084ZM195.42 36.926C195.992 37.3807 196.601 37.9087 197.246 38.51C197.891 39.1113 198.529 39.7347 199.16 40.38C199.791 41.0253 200.37 41.6487 200.898 42.25C201.441 42.8367 201.895 43.35 202.262 43.79L199.754 45.968C199.211 45.22 198.588 44.4427 197.884 43.636C197.195 42.8293 196.461 42.03 195.684 41.238C194.921 40.4313 194.144 39.6687 193.352 38.95L195.42 36.926ZM208.422 28.126C208.789 28.1847 209.185 28.2287 209.61 28.258C210.035 28.2727 210.424 28.28 210.776 28.28C211.055 28.28 211.495 28.28 212.096 28.28C212.697 28.28 213.372 28.28 214.12 28.28C214.868 28.28 215.616 28.28 216.364 28.28C217.112 28.28 217.772 28.28 218.344 28.28C218.931 28.28 219.356 28.28 219.62 28.28C220.001 28.28 220.397 28.2727 220.808 28.258C221.219 28.2287 221.615 28.1847 221.996 28.126V30.964C221.615 30.9347 221.219 30.9127 220.808 30.898C220.397 30.8833 220.001 30.876 219.62 30.876C219.356 30.876 218.931 30.876 218.344 30.876C217.772 30.876 217.112 30.876 216.364 30.876C215.616 30.876 214.868 30.876 214.12 30.876C213.372 30.876 212.697 30.876 212.096 30.876C211.509 30.876 211.077 30.876 210.798 30.876C210.417 30.876 210.006 30.8833 209.566 30.898C209.141 30.9127 208.759 30.9347 208.422 30.964V28.126ZM205.87 33.758C206.193 33.7873 206.537 33.8167 206.904 33.846C207.285 33.8753 207.645 33.89 207.982 33.89C208.173 33.89 208.554 33.89 209.126 33.89C209.698 33.89 210.387 33.89 211.194 33.89C212.001 33.89 212.866 33.89 213.79 33.89C214.729 33.89 215.66 33.89 216.584 33.89C217.523 33.89 218.395 33.89 219.202 33.89C220.009 33.89 220.691 33.89 221.248 33.89C221.82 33.89 222.201 33.89 222.392 33.89C222.627 33.89 222.942 33.8827 223.338 33.868C223.749 33.8387 224.101 33.802 224.394 33.758V36.618C224.13 36.5887 223.807 36.574 223.426 36.574C223.045 36.5593 222.7 36.552 222.392 36.552C222.201 36.552 221.82 36.552 221.248 36.552C220.691 36.552 220.009 36.552 219.202 36.552C218.395 36.552 217.523 36.552 216.584 36.552C215.66 36.552 214.729 36.552 213.79 36.552C212.866 36.552 212.001 36.552 211.194 36.552C210.387 36.552 209.698 36.552 209.126 36.552C208.554 36.552 208.173 36.552 207.982 36.552C207.659 36.552 207.3 36.5593 206.904 36.574C206.523 36.5887 206.178 36.6107 205.87 36.64V33.758ZM217.134 35.276C217.134 36.7133 217.009 38.004 216.76 39.148C216.511 40.2773 216.151 41.2967 215.682 42.206C215.418 42.7047 215.066 43.218 214.626 43.746C214.186 44.274 213.68 44.7727 213.108 45.242C212.536 45.7113 211.92 46.1073 211.26 46.43L208.686 44.56C209.463 44.252 210.211 43.812 210.93 43.24C211.649 42.668 212.228 42.0593 212.668 41.414C213.225 40.5633 213.599 39.6247 213.79 38.598C213.981 37.5713 214.076 36.4713 214.076 35.298L217.134 35.276ZM237.544 28.412C237.397 28.7347 237.243 29.1013 237.082 29.512C236.921 29.908 236.759 30.3553 236.598 30.854C236.466 31.2647 236.297 31.7927 236.092 32.438C235.887 33.0687 235.659 33.7653 235.41 34.528C235.161 35.276 234.897 36.0533 234.618 36.86C234.354 37.652 234.097 38.422 233.848 39.17C233.599 39.918 233.364 40.6 233.144 41.216C232.924 41.8173 232.733 42.3087 232.572 42.69L229.316 42.8C229.521 42.3307 229.749 41.7587 229.998 41.084C230.247 40.4093 230.511 39.676 230.79 38.884C231.069 38.0773 231.34 37.256 231.604 36.42C231.883 35.584 232.139 34.7773 232.374 34C232.623 33.2227 232.843 32.504 233.034 31.844C233.239 31.184 233.401 30.6487 233.518 30.238C233.665 29.666 233.775 29.1967 233.848 28.83C233.936 28.4487 234.002 28.0673 234.046 27.686L237.544 28.412ZM241.482 35.518C241.878 36.1047 242.303 36.794 242.758 37.586C243.213 38.378 243.66 39.2067 244.1 40.072C244.555 40.9227 244.973 41.744 245.354 42.536C245.735 43.328 246.051 44.0393 246.3 44.67L243.33 45.99C243.081 45.3153 242.773 44.5527 242.406 43.702C242.054 42.8513 241.665 41.986 241.24 41.106C240.829 40.226 240.404 39.3973 239.964 38.62C239.539 37.828 239.128 37.168 238.732 36.64L241.482 35.518ZM229.118 41.832C229.617 41.8027 230.218 41.766 230.922 41.722C231.641 41.6633 232.411 41.5973 233.232 41.524C234.053 41.436 234.889 41.348 235.74 41.26C236.605 41.172 237.449 41.084 238.27 40.996C239.106 40.8933 239.883 40.798 240.602 40.71C241.321 40.622 241.929 40.5413 242.428 40.468L243.088 43.284C242.545 43.3573 241.893 43.438 241.13 43.526C240.382 43.614 239.575 43.7093 238.71 43.812C237.845 43.9 236.965 43.9953 236.07 44.098C235.175 44.2007 234.303 44.296 233.452 44.384C232.601 44.472 231.817 44.5527 231.098 44.626C230.379 44.6847 229.771 44.7433 229.272 44.802C228.993 44.8313 228.663 44.8753 228.282 44.934C227.915 44.978 227.556 45.022 227.204 45.066L226.698 41.854C227.065 41.854 227.468 41.854 227.908 41.854C228.363 41.854 228.766 41.8467 229.118 41.832Z" fill="#322C26"/>
</svg>
