<svg width="443" height="170" viewBox="0 0 443 170" fill="none" xmlns="http://www.w3.org/2000/svg">
<g clip-path="url(#clip0_485_3)">
<rect width="443" height="170" fill="#FF6900"/>
<path d="M98.0312 107.172L111.625 49.75H119.219L120.953 59.3125L106.469 118H98.3125L98.0312 107.172ZM91.0469 49.75L102.297 107.172L101.359 118H92.2656L77.125 49.75H91.0469ZM132.906 106.938L144.016 49.75H157.938L142.844 118H133.75L132.906 106.938ZM123.484 49.75L137.172 107.406L136.797 118H128.641L114.062 59.2656L115.938 49.75H123.484ZM191.266 61.4219L172.703 118H157.75L183.109 49.75H192.625L191.266 61.4219ZM206.688 118L188.078 61.4219L186.578 49.75H196.188L221.688 118H206.688ZM205.844 92.5938V103.609H169.797V92.5938H205.844ZM228.016 49.75H253.469C258.688 49.75 263.172 50.5312 266.922 52.0938C270.703 53.6562 273.609 55.9688 275.641 59.0312C277.672 62.0938 278.688 65.8594 278.688 70.3281C278.688 73.9844 278.062 77.125 276.812 79.75C275.594 82.3438 273.859 84.5156 271.609 86.2656C269.391 87.9844 266.781 89.3594 263.781 90.3906L259.328 92.7344H237.203L237.109 81.7656H253.562C256.031 81.7656 258.078 81.3281 259.703 80.4531C261.328 79.5781 262.547 78.3594 263.359 76.7969C264.203 75.2344 264.625 73.4219 264.625 71.3594C264.625 69.1719 264.219 67.2812 263.406 65.6875C262.594 64.0938 261.359 62.875 259.703 62.0312C258.047 61.1875 255.969 60.7656 253.469 60.7656H242.078V118H228.016V49.75ZM266.172 118L250.609 87.5781L265.469 87.4844L281.219 117.344V118H266.172ZM295.938 49.75H307.844L325.375 99.8594L342.906 49.75H354.812L330.156 118H320.594L295.938 49.75ZM289.516 49.75H301.375L303.531 98.5938V118H289.516V49.75ZM349.375 49.75H361.281V118H347.219V98.5938L349.375 49.75Z" fill="white"/>
</g>
<defs>
<clipPath id="clip0_485_3">
<rect width="443" height="170" fill="white"/>
</clipPath>
</defs>
</svg>
